<svg xmlns="http://www.w3.org/2000/svg" width="18.949" height="18.949" viewBox="0 0 18.949 18.949"><path d="M12.6 13.927l1.326-1.326L10.422 9.1V4.742H8.527v5.116zm-3.127 5.022a9.225 9.225 0 01-3.7-.746 9.568 9.568 0 01-3.008-2.025A9.568 9.568 0 01.74 13.17a9.226 9.226 0 01-.746-3.7 9.226 9.226 0 01.746-3.7 9.568 9.568 0 012.025-3.008A9.568 9.568 0 015.773.737a9.226 9.226 0 013.7-.746 9.226 9.226 0 013.7.746 9.568 9.568 0 013.008 2.025 9.568 9.568 0 012.025 3.008 9.226 9.226 0 01.746 3.7 9.226 9.226 0 01-.746 3.7 9.568 9.568 0 01-2.025 3.008A9.568 9.568 0 0113.17 18.2a9.225 9.225 0 01-3.696.749z" fill="#2b2b51"/></svg>