<svg data-name="Group 42" xmlns="http://www.w3.org/2000/svg" width="200.185" height="54.266" viewBox="0 0 200.185 54.266"><defs><clipPath id="a"><path data-name="Rectangle 16" fill="#39397b" d="M0 0h200.185v54.266H0z"/></clipPath></defs><g data-name="Group 41" clip-path="url(#a)" fill="#39397b"><path data-name="Path 2" d="M117.049 21.61l-10.423 28.54h-6.9l-1.634-11.383a48.672 48.672 0 01-.545-7.4 61.094 61.094 0 01-2 6.8l-4.14 11.981h-6.573l-4.322-28.54h6.174l1.525 10.7a78.968 78.968 0 01.871 9.371c.581-2.525.8-3.252 1.017-3.937l.944-2.738 4.576-13.393h5.811l1.78 12.28c.29 1.754.472 4.193.69 7.788a41.293 41.293 0 011.2-4.236l.726-2.139 4.576-13.692z"/><path data-name="Path 3" d="M117.049 21.61l-10.423 28.54h-6.9l-1.634-11.383a48.672 48.672 0 01-.545-7.4 61.094 61.094 0 01-2 6.8l-4.14 11.981h-6.573l-4.322-28.54h6.174l1.525 10.7a78.968 78.968 0 01.871 9.371c.581-2.525.8-3.252 1.017-3.937l.944-2.738 4.576-13.393h5.811l1.78 12.28c.29 1.754.472 4.193.69 7.788a41.293 41.293 0 011.2-4.236l.726-2.139 4.576-13.692z" stroke="#39397b" stroke-miterlimit="10"/><path data-name="Path 4" d="M143.122 21.61l-1.075 6.29h-11.708l-.836 4.75h11.35l-1.075 6.247h-11.35l-.836 4.964h12.186l-1.075 6.29h-22.282l4.9-28.54z"/><path data-name="Path 5" d="M170.582 23.664l-3.893 5.477a11.616 11.616 0 00-6.155-2.1c-2.42 0-3.946.941-3.946 2.482 0 1.369.894 2.054 4.472 3.423 5.787 2.225 7.786 4.236 7.786 8 0 5.733-5.576 9.756-13.415 9.756-4.209 0-7.155-.77-11.836-3.124l4-5.477c3.157 1.754 5 2.353 7.418 2.353 2.788 0 4.682-1.155 4.682-2.91 0-1.241-.789-1.926-4.1-3.252-6.26-2.567-8.1-4.407-8.1-8.258 0-5.177 5.471-8.985 12.889-8.985a21.1 21.1 0 0110.206 2.61"/><path data-name="Path 6" d="M191.13 27.9l-3.679 22.25h-9.508l3.622-22.25h-8.037l1.019-6.29h25.638l-1.019 6.29z"/><path data-name="Path 7" d="M84.632 13.979H79.81l.435-2.469h4.622l.209-2.108h-4.46l.424-2.406h4.26l.214-2.139h2.9l-.2 2.139h4.968l-.424 2.406h-4.786l-.208 2.108h4.623l-.435 2.469h-4.4l-.389 4.058h-2.918z"/><path data-name="Path 8" d="M96.227 11.536l-1.8.058.345-1.959 1.522-.029.065-1.9h2.207l-.074 1.857 6.047-.176-.34 1.93c-.939 2.076-2.724 3.407-5.23 4.43l.384-2.178a4.737 4.737 0 002.577-2.193l-3.489.1-.243 6.638h-2.201z"/><path data-name="Path 9" d="M107.579 5.564h5.656l-.433 2.454h-5.656zm-1.672 9.484c5.388-.33 8.685-3.1 10.379-6.842h2.882c-2.088 5.159-6.782 8.855-13.713 9.406z"/><path data-name="Path 10" d="M121.559 5.225l2.775-.011-.355 2.076 7.764-.03-.423 2.469-7.764.03-.665 3.885c-.188 1.1.563 1.475 1.716 1.518a33.823 33.823 0 005.849-.384l-.43 2.516a49.857 49.857 0 01-6.174.275c-2.513-.147-4.23-1.021-3.808-3.49zm7.166-.562a2.559 2.559 0 012.539-1.911 1.682 1.682 0 011.87 1.894 2.555 2.555 0 01-2.524 1.927 1.689 1.689 0 01-1.885-1.91m2.047.857a1.175 1.175 0 001.146-.869.772.772 0 00-.85-.861 1.174 1.174 0 00-1.145.869.771.771 0 00.849.861"/><path data-name="Path 11" d="M134.571 5.564h5.656l-.433 2.454h-5.656zm-1.672 9.484c5.388-.33 8.685-3.1 10.379-6.842h2.882c-2.088 5.159-6.782 8.855-13.713 9.406z"/><path data-name="Path 12" d="M147.579 9.716a6.482 6.482 0 001.521-1.227 10.977 10.977 0 002.392-3.7h2.864a15.541 15.541 0 01-.686 1.637h5.964a15.72 15.72 0 01-2.092 6.008c-2.8 3.964-7.781 5.474-10.12 5.788l.449-2.548a12.388 12.388 0 004.908-2.029 7.9 7.9 0 003.4-4.876h-4.029a18.364 18.364 0 01-2.453 2.3 15.879 15.879 0 01-2.653 1.683zm9.095-6.653h1.378l-.438 2.485h-1.378zm2.157 0h1.378l-.438 2.485h-1.378z"/><path data-name="Path 13" d="M164.206 9.59h-3.082l.435-2.469h3.154l.388-2.2h2.737l-.388 2.2h5.511l-.43 2.438c-.308 1.746-.748 3.932-1.067 5.127-.609 2.328-1.913 3.036-3.272 3.24a7.414 7.414 0 01-3.358-.283l.438-2.485a5.485 5.485 0 002.638.251c.413-.079.708-.314.906-1.022.379-1.431.658-2.91.972-4.8h-2.846a11.4 11.4 0 01-7.453 8.65l.5-2.847a7.745 7.745 0 004.213-5.8"/><path data-name="Path 14" d="M174.797 10.689h8.375l-.435 2.469h-8.375z"/><path data-name="Path 15" d="M73.774 41.066c0-.078-.012-.155-.013-.232q-.035-4.383-.068-8.767a1.894 1.894 0 00-.018-.4 3.025 3.025 0 01.163-1.957c.2-.468-.079-.835-.594-.879a5.865 5.865 0 01-.6.008c-.132-.026-.336-.147-.35-.248a7.124 7.124 0 00-.99-2.538 41.25 41.25 0 00-3.7-5.242c-.542-.677-1.107-1.335-1.693-2.038 1.931-.466 3.811-.93 5.7-1.366.357-.082.553-.217.546-.6s.04-.758.01-1.134A23.6 23.6 0 0071 10.4a1.449 1.449 0 00-.415-.657c-.946-.777-1.878-1.582-2.888-2.27a48.74 48.74 0 00-9.945-5c-1.41-.546-2.87-.968-4.268-1.542A12.981 12.981 0 0045.8.306C40.656 1.361 35.54 2.56 30.405 3.674a3.9 3.9 0 00-2.412 1.151c-.417.507-.813 1.032-1.239 1.532a.918.918 0 01-.466.312Q16.894 8.483 7.5 10.279a.7.7 0 01-.631-.162 3.349 3.349 0 00-3.124-.709c-.824.233-1.655.446-2.494.617a1.132 1.132 0 00-.957.68A4.662 4.662 0 000 12.158c-.008 1.359.053 2.72.092 4.079.082 2.819.171 5.638.25 8.457.058 2.073.1 4.146.159 6.219.1 3.677.216 7.354.317 11.032a.364.364 0 00.233.38c.906.426 1.805.869 2.709 1.3a1.3 1.3 0 00.349.1c1.66.266 3.325.5 4.979.8a3.054 3.054 0 001.849-.176 2.166 2.166 0 01.286-.085c.06.514.085 1.006.178 1.486a4.333 4.333 0 003.109 3.657 2.019 2.019 0 001.008.06 3.751 3.751 0 002.837-2.767c.08-.273.128-.556.2-.854.514.057 1.011.111 1.508.169l7.2.844c2.224.26 4.447.525 6.672.777a18.67 18.67 0 002.326.2c2.116-.028 4.231-.119 6.347-.184h.318c.088.745.134 1.447.26 2.134a5 5 0 004.755 4.464 3.363 3.363 0 003.638-2.239 7.465 7.465 0 00.507-2.779v-1.256c.9.041 1.776.087 2.653.121q2.388.093 4.776.172c.214.007.318.053.331.294.02.355.1.707.129 1.062.019.206.115.28.311.31a10.766 10.766 0 007.359-1.411c.6-.356 1.149-.788 1.733-1.193l.034.509c.135-.092.236-.158.333-.228a25.621 25.621 0 012.209-1.562 2.9 2.9 0 001.113-1.317 1.062 1.062 0 00.081-.183 3.583 3.583 0 01.921-1.49 1.8 1.8 0 00.472-1.311c.021-.645-.127-.772-.765-.683m-57.715 6.385a1.547 1.547 0 01-2.77.436 4.2 4.2 0 01-.918-3.379 4.566 4.566 0 01.421-1.461 1.516 1.516 0 012.36-.6 2.954 2.954 0 011.246 2.124c.056.338.056.686.094 1.191a12.053 12.053 0 01-.435 1.689m12.45-26.5H28.4c0 1.025.018 2.05-.005 3.075a1.57 1.57 0 01-1.7 1.542 28.924 28.924 0 00-2.262-.026c-2.125.066-4.25.154-6.375.24-1.068.043-2.135.091-3.2.153-.753.044-1.107-.255-1.124-1.008-.041-1.838-.084-3.677-.107-5.515a5.524 5.524 0 01.134-1.059c.05-.271.106-.482.52-.462a9.166 9.166 0 001.589-.18l8.182-1.051c.927-.12 1.852-.257 2.778-.384a1.235 1.235 0 011.148.407 1.963 1.963 0 01.542 1.361c-.011.969 0 1.938 0 2.908m20.133 30.1A1.51 1.51 0 0146.2 52a4.2 4.2 0 01-1.939-3.782 13.9 13.9 0 01.317-2.306 1.884 1.884 0 01.31-.66 1.357 1.357 0 011.75-.544 3.233 3.233 0 011.486 1.3 5.294 5.294 0 01.819 3.2 18.6 18.6 0 01-.3 1.841m8.7-17.633a4.076 4.076 0 01-.935-.233q-6.313-2.412-12.621-4.84a2.434 2.434 0 00-.317-.1 1.5 1.5 0 01-1.308-1.755c.038-.8.062-1.6.081-2.4.023-.935-.008-1.875.062-2.806a1.358 1.358 0 011.5-1.35c2.56-.048 5.118-.186 7.678-.281a6.875 6.875 0 011.49.015 2.986 2.986 0 012.188 1.8c.458.987.829 2.016 1.208 3.037a2.569 2.569 0 01.122.854c.012 1.249.005 2.5.005 3.748v.327c.442.1.842.193 1.246.268.18.033.263.1.283.3.085.82.193 1.638.282 2.458.074.679-.289 1.051-.963.966m9.635 10.648a24.037 24.037 0 01-5.861.154c-.319-.025-.638-.067-.981-.1l-.11-4.146a6.845 6.845 0 01.777-.128 15.893 15.893 0 014.789.571 2.246 2.246 0 011.557 1.89 10.9 10.9 0 01.12 1.424c.018.217-.065.3-.292.339M71.587 29a13.01 13.01 0 01-3.887 1.045 11.961 11.961 0 01-6.6-1.085 7.672 7.672 0 01-1.416-1.091.405.405 0 01-.084-.269c-.029-1.191-.051-2.383-.075-3.574a.662.662 0 00-.429-.659c-.288-.105-.6-.139-.9-.22-.126-.034-.311-.08-.351-.173-.659-1.522-1.3-3.052-1.988-4.686 1.4-.12 2.726-.27 4.058-.338a17.259 17.259 0 014.554.336.806.806 0 01.449.236 661.005 661.005 0 015.4 7.109 13.111 13.111 0 011.129 1.891 6.53 6.53 0 01.349 1.175c.056.193-.075.245-.215.307m1.8 11.816c-.021.282-.363.54-.614.78a6.3 6.3 0 01.481-3.428l.132.005c.009.881.066 1.766 0 2.643"/></g></svg>