<svg xmlns="http://www.w3.org/2000/svg" width="18.949" height="18.949" viewBox="0 0 18.949 18.949"><path d="M17.844 18.949a15.8 15.8 0 01-6.5-1.434 19.446 19.446 0 01-5.843-4.066 19.447 19.447 0 01-4.066-5.843 15.8 15.8 0 01-1.434-6.5 1.071 1.071 0 01.316-.79A1.071 1.071 0 011.107 0h4.264a.979.979 0 01.658.25.962.962 0 01.342.592l.684 3.685a1.857 1.857 0 01-.026.711 1.107 1.107 0 01-.29.5L4.186 8.317a12.727 12.727 0 001.25 1.882 18.508 18.508 0 001.592 1.75 18.5 18.5 0 001.711 1.513 16.628 16.628 0 001.895 1.276l2.474-2.474a1.474 1.474 0 01.618-.355 1.7 1.7 0 01.75-.066l3.632.737a1.218 1.218 0 01.605.382.926.926 0 01.237.618v4.264a1.071 1.071 0 01-.316.789 1.071 1.071 0 01-.79.316z" fill="#2b2b51"/></svg>