<svg xmlns="http://www.w3.org/2000/svg" width="18.949" height="23.686" viewBox="0 0 18.949 23.686"><path data-name="location_on_FILL1_wght400_GRAD0_opsz24 (1)" d="M9.474 11.843a2.281 2.281 0 001.673-.7 2.281 2.281 0 00.7-1.673 2.281 2.281 0 00-.7-1.673 2.281 2.281 0 00-1.673-.7 2.281 2.281 0 00-1.673.7 2.281 2.281 0 00-.7 1.673 2.281 2.281 0 00.7 1.673 2.281 2.281 0 001.673.7zm0 11.843a39.371 39.371 0 01-7.121-7.535 11.718 11.718 0 01-2.354-6.44 9.16 9.16 0 012.857-7.076A9.465 9.465 0 019.474 0a9.465 9.465 0 016.617 2.635 9.16 9.16 0 012.857 7.076 11.718 11.718 0 01-2.354 6.44 39.37 39.37 0 01-7.12 7.535z" fill="#2b2b51"/></svg>